<mxfile host="app.diagrams.net" agent="Mozilla/5.0 (Windows NT 10.0; Win64; x64) AppleWebKit/537.36 (KHTML, like Gecko) Chrome/132.0.0.0 Safari/537.36" version="26.0.7">
  <diagram name="Page-1" id="YDIBHhKU7-WUsdUDPkpb">
    <mxGraphModel dx="2049" dy="1054" grid="1" gridSize="10" guides="1" tooltips="1" connect="1" arrows="1" fold="1" page="1" pageScale="1" pageWidth="1600" pageHeight="900" background="#F7F7F7" math="0" shadow="0">
      <root>
        <mxCell id="0" />
        <mxCell id="1" parent="0" />
        <mxCell id="ZdY6UfQ90pM_1I85fz65-1" value="User" style="swimlane;fontStyle=0;childLayout=stackLayout;horizontal=1;startSize=30;horizontalStack=0;resizeParent=1;resizeParentMax=0;resizeLast=0;collapsible=1;marginBottom=0;whiteSpace=wrap;html=1;labelBackgroundColor=none;fillColor=#A8DADC;strokeColor=#457B9D;fontColor=#1D3557;" vertex="1" parent="1">
          <mxGeometry x="840" y="70" width="140" height="330" as="geometry" />
        </mxCell>
        <mxCell id="ZdY6UfQ90pM_1I85fz65-2" value="ID_user" style="text;strokeColor=none;fillColor=none;align=left;verticalAlign=middle;spacingLeft=4;spacingRight=4;overflow=hidden;points=[[0,0.5],[1,0.5]];portConstraint=eastwest;rotatable=0;whiteSpace=wrap;html=1;fontStyle=4;labelBackgroundColor=none;fontColor=#1D3557;" vertex="1" parent="ZdY6UfQ90pM_1I85fz65-1">
          <mxGeometry y="30" width="140" height="30" as="geometry" />
        </mxCell>
        <mxCell id="ZdY6UfQ90pM_1I85fz65-3" value="nom" style="text;strokeColor=none;fillColor=none;align=left;verticalAlign=middle;spacingLeft=4;spacingRight=4;overflow=hidden;points=[[0,0.5],[1,0.5]];portConstraint=eastwest;rotatable=0;whiteSpace=wrap;html=1;labelBackgroundColor=none;fontColor=#1D3557;" vertex="1" parent="ZdY6UfQ90pM_1I85fz65-1">
          <mxGeometry y="60" width="140" height="30" as="geometry" />
        </mxCell>
        <mxCell id="ZdY6UfQ90pM_1I85fz65-4" value="prÃ©nom" style="text;strokeColor=none;fillColor=none;align=left;verticalAlign=middle;spacingLeft=4;spacingRight=4;overflow=hidden;points=[[0,0.5],[1,0.5]];portConstraint=eastwest;rotatable=0;whiteSpace=wrap;html=1;labelBackgroundColor=none;fontColor=#1D3557;" vertex="1" parent="ZdY6UfQ90pM_1I85fz65-1">
          <mxGeometry y="90" width="140" height="30" as="geometry" />
        </mxCell>
        <mxCell id="ZdY6UfQ90pM_1I85fz65-5" value="mail" style="text;strokeColor=none;fillColor=none;align=left;verticalAlign=middle;spacingLeft=4;spacingRight=4;overflow=hidden;points=[[0,0.5],[1,0.5]];portConstraint=eastwest;rotatable=0;whiteSpace=wrap;html=1;labelBackgroundColor=none;fontColor=#1D3557;" vertex="1" parent="ZdY6UfQ90pM_1I85fz65-1">
          <mxGeometry y="120" width="140" height="30" as="geometry" />
        </mxCell>
        <mxCell id="ZdY6UfQ90pM_1I85fz65-6" value="password" style="text;strokeColor=none;fillColor=none;align=left;verticalAlign=middle;spacingLeft=4;spacingRight=4;overflow=hidden;points=[[0,0.5],[1,0.5]];portConstraint=eastwest;rotatable=0;whiteSpace=wrap;html=1;labelBackgroundColor=none;fontColor=#1D3557;" vertex="1" parent="ZdY6UfQ90pM_1I85fz65-1">
          <mxGeometry y="150" width="140" height="30" as="geometry" />
        </mxCell>
        <mxCell id="ZdY6UfQ90pM_1I85fz65-7" value="age" style="text;strokeColor=none;fillColor=none;align=left;verticalAlign=middle;spacingLeft=4;spacingRight=4;overflow=hidden;points=[[0,0.5],[1,0.5]];portConstraint=eastwest;rotatable=0;whiteSpace=wrap;html=1;labelBackgroundColor=none;fontColor=#1D3557;" vertex="1" parent="ZdY6UfQ90pM_1I85fz65-1">
          <mxGeometry y="180" width="140" height="30" as="geometry" />
        </mxCell>
        <mxCell id="ZdY6UfQ90pM_1I85fz65-8" value="taille" style="text;strokeColor=none;fillColor=none;align=left;verticalAlign=middle;spacingLeft=4;spacingRight=4;overflow=hidden;points=[[0,0.5],[1,0.5]];portConstraint=eastwest;rotatable=0;whiteSpace=wrap;html=1;labelBackgroundColor=none;fontColor=#1D3557;" vertex="1" parent="ZdY6UfQ90pM_1I85fz65-1">
          <mxGeometry y="210" width="140" height="30" as="geometry" />
        </mxCell>
        <mxCell id="ZdY6UfQ90pM_1I85fz65-9" value="poids" style="text;strokeColor=none;fillColor=none;align=left;verticalAlign=middle;spacingLeft=4;spacingRight=4;overflow=hidden;points=[[0,0.5],[1,0.5]];portConstraint=eastwest;rotatable=0;whiteSpace=wrap;html=1;labelBackgroundColor=none;fontColor=#1D3557;" vertex="1" parent="ZdY6UfQ90pM_1I85fz65-1">
          <mxGeometry y="240" width="140" height="30" as="geometry" />
        </mxCell>
        <mxCell id="ZdY6UfQ90pM_1I85fz65-10" value="sexe" style="text;strokeColor=none;fillColor=none;align=left;verticalAlign=middle;spacingLeft=4;spacingRight=4;overflow=hidden;points=[[0,0.5],[1,0.5]];portConstraint=eastwest;rotatable=0;whiteSpace=wrap;html=1;labelBackgroundColor=none;fontColor=#1D3557;" vertex="1" parent="ZdY6UfQ90pM_1I85fz65-1">
          <mxGeometry y="270" width="140" height="30" as="geometry" />
        </mxCell>
        <mxCell id="ZdY6UfQ90pM_1I85fz65-11" value="imc" style="text;strokeColor=none;fillColor=none;align=left;verticalAlign=middle;spacingLeft=4;spacingRight=4;overflow=hidden;points=[[0,0.5],[1,0.5]];portConstraint=eastwest;rotatable=0;whiteSpace=wrap;html=1;labelBackgroundColor=none;fontColor=#1D3557;" vertex="1" parent="ZdY6UfQ90pM_1I85fz65-1">
          <mxGeometry y="300" width="140" height="30" as="geometry" />
        </mxCell>
        <mxCell id="ZdY6UfQ90pM_1I85fz65-12" value="IMC_apports" style="swimlane;fontStyle=0;childLayout=stackLayout;horizontal=1;startSize=30;horizontalStack=0;resizeParent=1;resizeParentMax=0;resizeLast=0;collapsible=1;marginBottom=0;whiteSpace=wrap;html=1;labelBackgroundColor=none;fillColor=#A8DADC;strokeColor=#457B9D;fontColor=#1D3557;" vertex="1" parent="1">
          <mxGeometry x="1290" y="60" width="140" height="240" as="geometry" />
        </mxCell>
        <mxCell id="ZdY6UfQ90pM_1I85fz65-13" value="imc_min" style="text;strokeColor=none;fillColor=none;align=left;verticalAlign=middle;spacingLeft=4;spacingRight=4;overflow=hidden;points=[[0,0.5],[1,0.5]];portConstraint=eastwest;rotatable=0;whiteSpace=wrap;html=1;labelBackgroundColor=none;fontColor=#1D3557;" vertex="1" parent="ZdY6UfQ90pM_1I85fz65-12">
          <mxGeometry y="30" width="140" height="30" as="geometry" />
        </mxCell>
        <mxCell id="ZdY6UfQ90pM_1I85fz65-20" value="imc_max" style="text;strokeColor=none;fillColor=none;align=left;verticalAlign=middle;spacingLeft=4;spacingRight=4;overflow=hidden;points=[[0,0.5],[1,0.5]];portConstraint=eastwest;rotatable=0;whiteSpace=wrap;html=1;labelBackgroundColor=none;fontColor=#1D3557;" vertex="1" parent="ZdY6UfQ90pM_1I85fz65-12">
          <mxGeometry y="60" width="140" height="30" as="geometry" />
        </mxCell>
        <mxCell id="ZdY6UfQ90pM_1I85fz65-21" value="calories" style="text;strokeColor=none;fillColor=none;align=left;verticalAlign=middle;spacingLeft=4;spacingRight=4;overflow=hidden;points=[[0,0.5],[1,0.5]];portConstraint=eastwest;rotatable=0;whiteSpace=wrap;html=1;labelBackgroundColor=none;fontColor=#1D3557;" vertex="1" parent="ZdY6UfQ90pM_1I85fz65-12">
          <mxGeometry y="90" width="140" height="30" as="geometry" />
        </mxCell>
        <mxCell id="ZdY6UfQ90pM_1I85fz65-22" value="eau" style="text;strokeColor=none;fillColor=none;align=left;verticalAlign=middle;spacingLeft=4;spacingRight=4;overflow=hidden;points=[[0,0.5],[1,0.5]];portConstraint=eastwest;rotatable=0;whiteSpace=wrap;html=1;labelBackgroundColor=none;fontColor=#1D3557;" vertex="1" parent="ZdY6UfQ90pM_1I85fz65-12">
          <mxGeometry y="120" width="140" height="30" as="geometry" />
        </mxCell>
        <mxCell id="ZdY6UfQ90pM_1I85fz65-23" value="glucides" style="text;strokeColor=none;fillColor=none;align=left;verticalAlign=middle;spacingLeft=4;spacingRight=4;overflow=hidden;points=[[0,0.5],[1,0.5]];portConstraint=eastwest;rotatable=0;whiteSpace=wrap;html=1;labelBackgroundColor=none;fontColor=#1D3557;" vertex="1" parent="ZdY6UfQ90pM_1I85fz65-12">
          <mxGeometry y="150" width="140" height="30" as="geometry" />
        </mxCell>
        <mxCell id="ZdY6UfQ90pM_1I85fz65-24" value="lipides" style="text;strokeColor=none;fillColor=none;align=left;verticalAlign=middle;spacingLeft=4;spacingRight=4;overflow=hidden;points=[[0,0.5],[1,0.5]];portConstraint=eastwest;rotatable=0;whiteSpace=wrap;html=1;labelBackgroundColor=none;fontColor=#1D3557;" vertex="1" parent="ZdY6UfQ90pM_1I85fz65-12">
          <mxGeometry y="180" width="140" height="30" as="geometry" />
        </mxCell>
        <mxCell id="ZdY6UfQ90pM_1I85fz65-25" value="proteines" style="text;strokeColor=none;fillColor=none;align=left;verticalAlign=middle;spacingLeft=4;spacingRight=4;overflow=hidden;points=[[0,0.5],[1,0.5]];portConstraint=eastwest;rotatable=0;whiteSpace=wrap;html=1;labelBackgroundColor=none;fontColor=#1D3557;" vertex="1" parent="ZdY6UfQ90pM_1I85fz65-12">
          <mxGeometry y="210" width="140" height="30" as="geometry" />
        </mxCell>
        <mxCell id="ZdY6UfQ90pM_1I85fz65-31" value="Restrictions" style="swimlane;fontStyle=0;childLayout=stackLayout;horizontal=1;startSize=30;horizontalStack=0;resizeParent=1;resizeParentMax=0;resizeLast=0;collapsible=1;marginBottom=0;whiteSpace=wrap;html=1;labelBackgroundColor=none;fillColor=#A8DADC;strokeColor=#457B9D;fontColor=#1D3557;" vertex="1" parent="1">
          <mxGeometry x="340" y="165" width="140" height="90" as="geometry" />
        </mxCell>
        <mxCell id="ZdY6UfQ90pM_1I85fz65-33" value="ID_restriction" style="text;strokeColor=none;fillColor=none;align=left;verticalAlign=middle;spacingLeft=4;spacingRight=4;overflow=hidden;points=[[0,0.5],[1,0.5]];portConstraint=eastwest;rotatable=0;whiteSpace=wrap;html=1;fontStyle=4;labelBackgroundColor=none;fontColor=#1D3557;" vertex="1" parent="ZdY6UfQ90pM_1I85fz65-31">
          <mxGeometry y="30" width="140" height="30" as="geometry" />
        </mxCell>
        <mxCell id="ZdY6UfQ90pM_1I85fz65-32" value="nom" style="text;strokeColor=none;fillColor=none;align=left;verticalAlign=middle;spacingLeft=4;spacingRight=4;overflow=hidden;points=[[0,0.5],[1,0.5]];portConstraint=eastwest;rotatable=0;whiteSpace=wrap;html=1;labelBackgroundColor=none;fontColor=#1D3557;" vertex="1" parent="ZdY6UfQ90pM_1I85fz65-31">
          <mxGeometry y="60" width="140" height="30" as="geometry" />
        </mxCell>
        <mxCell id="ZdY6UfQ90pM_1I85fz65-36" style="edgeStyle=entityRelationEdgeStyle;rounded=0;orthogonalLoop=1;jettySize=auto;html=1;labelBackgroundColor=none;strokeColor=#457B9D;fontColor=default;" edge="1" parent="1" source="ZdY6UfQ90pM_1I85fz65-30" target="ZdY6UfQ90pM_1I85fz65-33">
          <mxGeometry relative="1" as="geometry" />
        </mxCell>
        <mxCell id="ZdY6UfQ90pM_1I85fz65-37" value="Aliments" style="swimlane;fontStyle=0;childLayout=stackLayout;horizontal=1;startSize=30;horizontalStack=0;resizeParent=1;resizeParentMax=0;resizeLast=0;collapsible=1;marginBottom=0;whiteSpace=wrap;html=1;labelBackgroundColor=none;fillColor=#A8DADC;strokeColor=#457B9D;fontColor=#1D3557;" vertex="1" parent="1">
          <mxGeometry x="300" y="380" width="140" height="240" as="geometry" />
        </mxCell>
        <mxCell id="ZdY6UfQ90pM_1I85fz65-40" value="&lt;u&gt;ID_aliment&lt;/u&gt;" style="text;strokeColor=none;fillColor=none;align=left;verticalAlign=middle;spacingLeft=4;spacingRight=4;overflow=hidden;points=[[0,0.5],[1,0.5]];portConstraint=eastwest;rotatable=0;whiteSpace=wrap;html=1;labelBackgroundColor=none;fontColor=#1D3557;" vertex="1" parent="ZdY6UfQ90pM_1I85fz65-37">
          <mxGeometry y="30" width="140" height="30" as="geometry" />
        </mxCell>
        <mxCell id="ZdY6UfQ90pM_1I85fz65-41" value="nom" style="text;strokeColor=none;fillColor=none;align=left;verticalAlign=middle;spacingLeft=4;spacingRight=4;overflow=hidden;points=[[0,0.5],[1,0.5]];portConstraint=eastwest;rotatable=0;whiteSpace=wrap;html=1;fontStyle=0;labelBackgroundColor=none;fontColor=#1D3557;" vertex="1" parent="ZdY6UfQ90pM_1I85fz65-37">
          <mxGeometry y="60" width="140" height="30" as="geometry" />
        </mxCell>
        <mxCell id="ZdY6UfQ90pM_1I85fz65-114" value="quantite_base" style="text;strokeColor=none;fillColor=none;align=left;verticalAlign=middle;spacingLeft=4;spacingRight=4;overflow=hidden;points=[[0,0.5],[1,0.5]];portConstraint=eastwest;rotatable=0;whiteSpace=wrap;html=1;labelBackgroundColor=none;fontColor=#1D3557;" vertex="1" parent="ZdY6UfQ90pM_1I85fz65-37">
          <mxGeometry y="90" width="140" height="30" as="geometry" />
        </mxCell>
        <mxCell id="ZdY6UfQ90pM_1I85fz65-42" value="calories" style="text;strokeColor=none;fillColor=none;align=left;verticalAlign=middle;spacingLeft=4;spacingRight=4;overflow=hidden;points=[[0,0.5],[1,0.5]];portConstraint=eastwest;rotatable=0;whiteSpace=wrap;html=1;fontStyle=0;labelBackgroundColor=none;fontColor=#1D3557;" vertex="1" parent="ZdY6UfQ90pM_1I85fz65-37">
          <mxGeometry y="120" width="140" height="30" as="geometry" />
        </mxCell>
        <mxCell id="ZdY6UfQ90pM_1I85fz65-43" value="glucides" style="text;strokeColor=none;fillColor=none;align=left;verticalAlign=middle;spacingLeft=4;spacingRight=4;overflow=hidden;points=[[0,0.5],[1,0.5]];portConstraint=eastwest;rotatable=0;whiteSpace=wrap;html=1;fontStyle=0;labelBackgroundColor=none;fontColor=#1D3557;" vertex="1" parent="ZdY6UfQ90pM_1I85fz65-37">
          <mxGeometry y="150" width="140" height="30" as="geometry" />
        </mxCell>
        <mxCell id="ZdY6UfQ90pM_1I85fz65-44" value="lipides" style="text;strokeColor=none;fillColor=none;align=left;verticalAlign=middle;spacingLeft=4;spacingRight=4;overflow=hidden;points=[[0,0.5],[1,0.5]];portConstraint=eastwest;rotatable=0;whiteSpace=wrap;html=1;fontStyle=0;labelBackgroundColor=none;fontColor=#1D3557;" vertex="1" parent="ZdY6UfQ90pM_1I85fz65-37">
          <mxGeometry y="180" width="140" height="30" as="geometry" />
        </mxCell>
        <mxCell id="ZdY6UfQ90pM_1I85fz65-45" value="image" style="text;strokeColor=none;fillColor=none;align=left;verticalAlign=middle;spacingLeft=4;spacingRight=4;overflow=hidden;points=[[0,0.5],[1,0.5]];portConstraint=eastwest;rotatable=0;whiteSpace=wrap;html=1;fontStyle=0;labelBackgroundColor=none;fontColor=#1D3557;" vertex="1" parent="ZdY6UfQ90pM_1I85fz65-37">
          <mxGeometry y="210" width="140" height="30" as="geometry" />
        </mxCell>
        <mxCell id="ZdY6UfQ90pM_1I85fz65-56" value="Restrictions_aliments" style="swimlane;fontStyle=0;childLayout=stackLayout;horizontal=1;startSize=30;horizontalStack=0;resizeParent=1;resizeParentMax=0;resizeLast=0;collapsible=1;marginBottom=0;whiteSpace=wrap;html=1;labelBackgroundColor=none;fillColor=#A8DADC;strokeColor=#457B9D;fontColor=#1D3557;" vertex="1" parent="1">
          <mxGeometry x="60" y="270" width="140" height="90" as="geometry" />
        </mxCell>
        <mxCell id="ZdY6UfQ90pM_1I85fz65-58" value="ID_restriction" style="text;strokeColor=none;fillColor=none;align=left;verticalAlign=middle;spacingLeft=4;spacingRight=4;overflow=hidden;points=[[0,0.5],[1,0.5]];portConstraint=eastwest;rotatable=0;whiteSpace=wrap;html=1;fontStyle=4;labelBackgroundColor=none;fontColor=#1D3557;" vertex="1" parent="ZdY6UfQ90pM_1I85fz65-56">
          <mxGeometry y="30" width="140" height="30" as="geometry" />
        </mxCell>
        <mxCell id="ZdY6UfQ90pM_1I85fz65-57" value="ID_aliment" style="text;strokeColor=none;fillColor=none;align=left;verticalAlign=middle;spacingLeft=4;spacingRight=4;overflow=hidden;points=[[0,0.5],[1,0.5]];portConstraint=eastwest;rotatable=0;whiteSpace=wrap;html=1;fontStyle=4;labelBackgroundColor=none;fontColor=#1D3557;" vertex="1" parent="ZdY6UfQ90pM_1I85fz65-56">
          <mxGeometry y="60" width="140" height="30" as="geometry" />
        </mxCell>
        <mxCell id="ZdY6UfQ90pM_1I85fz65-59" style="edgeStyle=entityRelationEdgeStyle;rounded=0;orthogonalLoop=1;jettySize=auto;html=1;labelBackgroundColor=none;strokeColor=#457B9D;fontColor=default;" edge="1" parent="1" source="ZdY6UfQ90pM_1I85fz65-58" target="ZdY6UfQ90pM_1I85fz65-33">
          <mxGeometry relative="1" as="geometry" />
        </mxCell>
        <mxCell id="ZdY6UfQ90pM_1I85fz65-60" style="edgeStyle=entityRelationEdgeStyle;rounded=0;orthogonalLoop=1;jettySize=auto;html=1;labelBackgroundColor=none;strokeColor=#457B9D;fontColor=default;" edge="1" parent="1" source="ZdY6UfQ90pM_1I85fz65-57" target="ZdY6UfQ90pM_1I85fz65-40">
          <mxGeometry relative="1" as="geometry" />
        </mxCell>
        <mxCell id="ZdY6UfQ90pM_1I85fz65-61" value="Plats" style="swimlane;fontStyle=0;childLayout=stackLayout;horizontal=1;startSize=30;horizontalStack=0;resizeParent=1;resizeParentMax=0;resizeLast=0;collapsible=1;marginBottom=0;whiteSpace=wrap;html=1;labelBackgroundColor=none;fillColor=#A8DADC;strokeColor=#457B9D;fontColor=#1D3557;" vertex="1" parent="1">
          <mxGeometry x="850" y="560" width="140" height="210" as="geometry" />
        </mxCell>
        <mxCell id="ZdY6UfQ90pM_1I85fz65-62" value="&lt;u&gt;ID_plat&lt;/u&gt;" style="text;strokeColor=none;fillColor=none;align=left;verticalAlign=middle;spacingLeft=4;spacingRight=4;overflow=hidden;points=[[0,0.5],[1,0.5]];portConstraint=eastwest;rotatable=0;whiteSpace=wrap;html=1;labelBackgroundColor=none;fontColor=#1D3557;" vertex="1" parent="ZdY6UfQ90pM_1I85fz65-61">
          <mxGeometry y="30" width="140" height="30" as="geometry" />
        </mxCell>
        <mxCell id="ZdY6UfQ90pM_1I85fz65-63" value="duree" style="text;strokeColor=none;fillColor=none;align=left;verticalAlign=middle;spacingLeft=4;spacingRight=4;overflow=hidden;points=[[0,0.5],[1,0.5]];portConstraint=eastwest;rotatable=0;whiteSpace=wrap;html=1;labelBackgroundColor=none;fontColor=#1D3557;" vertex="1" parent="ZdY6UfQ90pM_1I85fz65-61">
          <mxGeometry y="60" width="140" height="30" as="geometry" />
        </mxCell>
        <mxCell id="ZdY6UfQ90pM_1I85fz65-76" value="description" style="text;strokeColor=none;fillColor=none;align=left;verticalAlign=middle;spacingLeft=4;spacingRight=4;overflow=hidden;points=[[0,0.5],[1,0.5]];portConstraint=eastwest;rotatable=0;whiteSpace=wrap;html=1;labelBackgroundColor=none;fontColor=#1D3557;" vertex="1" parent="ZdY6UfQ90pM_1I85fz65-61">
          <mxGeometry y="90" width="140" height="30" as="geometry" />
        </mxCell>
        <mxCell id="ZdY6UfQ90pM_1I85fz65-65" value="etapes" style="text;strokeColor=none;fillColor=none;align=left;verticalAlign=middle;spacingLeft=4;spacingRight=4;overflow=hidden;points=[[0,0.5],[1,0.5]];portConstraint=eastwest;rotatable=0;whiteSpace=wrap;html=1;labelBackgroundColor=none;fontColor=#1D3557;" vertex="1" parent="ZdY6UfQ90pM_1I85fz65-61">
          <mxGeometry y="120" width="140" height="30" as="geometry" />
        </mxCell>
        <mxCell id="ZdY6UfQ90pM_1I85fz65-64" value="image" style="text;strokeColor=none;fillColor=none;align=left;verticalAlign=middle;spacingLeft=4;spacingRight=4;overflow=hidden;points=[[0,0.5],[1,0.5]];portConstraint=eastwest;rotatable=0;whiteSpace=wrap;html=1;labelBackgroundColor=none;fontColor=#1D3557;" vertex="1" parent="ZdY6UfQ90pM_1I85fz65-61">
          <mxGeometry y="150" width="140" height="30" as="geometry" />
        </mxCell>
        <mxCell id="ZdY6UfQ90pM_1I85fz65-66" value="ID_categorie" style="text;strokeColor=none;fillColor=none;align=left;verticalAlign=middle;spacingLeft=4;spacingRight=4;overflow=hidden;points=[[0,0.5],[1,0.5]];portConstraint=eastwest;rotatable=0;whiteSpace=wrap;html=1;labelBackgroundColor=none;fontColor=#1D3557;" vertex="1" parent="ZdY6UfQ90pM_1I85fz65-61">
          <mxGeometry y="180" width="140" height="30" as="geometry" />
        </mxCell>
        <mxCell id="ZdY6UfQ90pM_1I85fz65-67" value="Ingredient_de_recette" style="swimlane;fontStyle=0;childLayout=stackLayout;horizontal=1;startSize=30;horizontalStack=0;resizeParent=1;resizeParentMax=0;resizeLast=0;collapsible=1;marginBottom=0;whiteSpace=wrap;html=1;labelBackgroundColor=none;fillColor=#A8DADC;strokeColor=#457B9D;fontColor=#1D3557;" vertex="1" parent="1">
          <mxGeometry x="570" y="380" width="140" height="150" as="geometry" />
        </mxCell>
        <mxCell id="ZdY6UfQ90pM_1I85fz65-68" value="&lt;u&gt;ID_plat&lt;/u&gt;" style="text;strokeColor=none;fillColor=none;align=left;verticalAlign=middle;spacingLeft=4;spacingRight=4;overflow=hidden;points=[[0,0.5],[1,0.5]];portConstraint=eastwest;rotatable=0;whiteSpace=wrap;html=1;labelBackgroundColor=none;fontColor=#1D3557;" vertex="1" parent="ZdY6UfQ90pM_1I85fz65-67">
          <mxGeometry y="30" width="140" height="30" as="geometry" />
        </mxCell>
        <mxCell id="ZdY6UfQ90pM_1I85fz65-69" value="ID_aliment" style="text;strokeColor=none;fillColor=none;align=left;verticalAlign=middle;spacingLeft=4;spacingRight=4;overflow=hidden;points=[[0,0.5],[1,0.5]];portConstraint=eastwest;rotatable=0;whiteSpace=wrap;html=1;fontStyle=4;labelBackgroundColor=none;fontColor=#1D3557;" vertex="1" parent="ZdY6UfQ90pM_1I85fz65-67">
          <mxGeometry y="60" width="140" height="30" as="geometry" />
        </mxCell>
        <mxCell id="ZdY6UfQ90pM_1I85fz65-70" value="multiplicateur_quantite" style="text;strokeColor=none;fillColor=none;align=left;verticalAlign=middle;spacingLeft=4;spacingRight=4;overflow=hidden;points=[[0,0.5],[1,0.5]];portConstraint=eastwest;rotatable=0;whiteSpace=wrap;html=1;labelBackgroundColor=none;fontColor=#1D3557;" vertex="1" parent="ZdY6UfQ90pM_1I85fz65-67">
          <mxGeometry y="90" width="140" height="30" as="geometry" />
        </mxCell>
        <mxCell id="ZdY6UfQ90pM_1I85fz65-73" value="unite" style="text;strokeColor=none;fillColor=none;align=left;verticalAlign=middle;spacingLeft=4;spacingRight=4;overflow=hidden;points=[[0,0.5],[1,0.5]];portConstraint=eastwest;rotatable=0;whiteSpace=wrap;html=1;labelBackgroundColor=none;fontColor=#1D3557;" vertex="1" parent="ZdY6UfQ90pM_1I85fz65-67">
          <mxGeometry y="120" width="140" height="30" as="geometry" />
        </mxCell>
        <mxCell id="ZdY6UfQ90pM_1I85fz65-74" style="edgeStyle=entityRelationEdgeStyle;rounded=0;orthogonalLoop=1;jettySize=auto;html=1;labelBackgroundColor=none;strokeColor=#457B9D;fontColor=default;" edge="1" parent="1" source="ZdY6UfQ90pM_1I85fz65-68" target="ZdY6UfQ90pM_1I85fz65-62">
          <mxGeometry relative="1" as="geometry">
            <mxPoint x="420" y="570" as="sourcePoint" />
            <mxPoint x="420" y="470" as="targetPoint" />
          </mxGeometry>
        </mxCell>
        <mxCell id="ZdY6UfQ90pM_1I85fz65-75" style="edgeStyle=entityRelationEdgeStyle;rounded=0;orthogonalLoop=1;jettySize=auto;html=1;labelBackgroundColor=none;strokeColor=#457B9D;fontColor=default;" edge="1" parent="1" source="ZdY6UfQ90pM_1I85fz65-69" target="ZdY6UfQ90pM_1I85fz65-40">
          <mxGeometry relative="1" as="geometry" />
        </mxCell>
        <mxCell id="ZdY6UfQ90pM_1I85fz65-77" value="Alimentation" style="swimlane;fontStyle=0;childLayout=stackLayout;horizontal=1;startSize=30;horizontalStack=0;resizeParent=1;resizeParentMax=0;resizeLast=0;collapsible=1;marginBottom=0;whiteSpace=wrap;html=1;labelBackgroundColor=none;fillColor=#A8DADC;strokeColor=#457B9D;fontColor=#1D3557;" vertex="1" parent="1">
          <mxGeometry x="1280" y="520" width="140" height="210" as="geometry" />
        </mxCell>
        <mxCell id="ZdY6UfQ90pM_1I85fz65-115" value="ID_alimentation" style="text;strokeColor=none;fillColor=none;align=left;verticalAlign=middle;spacingLeft=4;spacingRight=4;overflow=hidden;points=[[0,0.5],[1,0.5]];portConstraint=eastwest;rotatable=0;whiteSpace=wrap;html=1;fontStyle=4;labelBackgroundColor=none;fontColor=#1D3557;" vertex="1" parent="ZdY6UfQ90pM_1I85fz65-77">
          <mxGeometry y="30" width="140" height="30" as="geometry" />
        </mxCell>
        <mxCell id="ZdY6UfQ90pM_1I85fz65-80" value="ID_user" style="text;strokeColor=none;fillColor=none;align=left;verticalAlign=middle;spacingLeft=4;spacingRight=4;overflow=hidden;points=[[0,0.5],[1,0.5]];portConstraint=eastwest;rotatable=0;whiteSpace=wrap;html=1;fontStyle=0;labelBackgroundColor=none;fontColor=#1D3557;" vertex="1" parent="ZdY6UfQ90pM_1I85fz65-77">
          <mxGeometry y="60" width="140" height="30" as="geometry" />
        </mxCell>
        <mxCell id="ZdY6UfQ90pM_1I85fz65-81" value="&lt;span&gt;ID_plat?&lt;/span&gt;" style="text;strokeColor=none;fillColor=none;align=left;verticalAlign=middle;spacingLeft=4;spacingRight=4;overflow=hidden;points=[[0,0.5],[1,0.5]];portConstraint=eastwest;rotatable=0;whiteSpace=wrap;html=1;fontStyle=0;labelBackgroundColor=none;fontColor=#1D3557;" vertex="1" parent="ZdY6UfQ90pM_1I85fz65-77">
          <mxGeometry y="90" width="140" height="30" as="geometry" />
        </mxCell>
        <mxCell id="ZdY6UfQ90pM_1I85fz65-85" value="&lt;span&gt;ID_aliment?&lt;/span&gt;" style="text;strokeColor=none;fillColor=none;align=left;verticalAlign=middle;spacingLeft=4;spacingRight=4;overflow=hidden;points=[[0,0.5],[1,0.5]];portConstraint=eastwest;rotatable=0;whiteSpace=wrap;html=1;fontStyle=0;labelBackgroundColor=none;fontColor=#1D3557;" vertex="1" parent="ZdY6UfQ90pM_1I85fz65-77">
          <mxGeometry y="120" width="140" height="30" as="geometry" />
        </mxCell>
        <mxCell id="ZdY6UfQ90pM_1I85fz65-82" value="date" style="text;strokeColor=none;fillColor=none;align=left;verticalAlign=middle;spacingLeft=4;spacingRight=4;overflow=hidden;points=[[0,0.5],[1,0.5]];portConstraint=eastwest;rotatable=0;whiteSpace=wrap;html=1;fontStyle=0;labelBackgroundColor=none;fontColor=#1D3557;" vertex="1" parent="ZdY6UfQ90pM_1I85fz65-77">
          <mxGeometry y="150" width="140" height="30" as="geometry" />
        </mxCell>
        <mxCell id="ZdY6UfQ90pM_1I85fz65-83" value="ID_moment" style="text;strokeColor=none;fillColor=none;align=left;verticalAlign=middle;spacingLeft=4;spacingRight=4;overflow=hidden;points=[[0,0.5],[1,0.5]];portConstraint=eastwest;rotatable=0;whiteSpace=wrap;html=1;fontStyle=0;labelBackgroundColor=none;fontColor=#1D3557;" vertex="1" parent="ZdY6UfQ90pM_1I85fz65-77">
          <mxGeometry y="180" width="140" height="30" as="geometry" />
        </mxCell>
        <mxCell id="ZdY6UfQ90pM_1I85fz65-86" style="edgeStyle=entityRelationEdgeStyle;rounded=0;orthogonalLoop=1;jettySize=auto;html=1;labelBackgroundColor=none;strokeColor=#457B9D;fontColor=default;" edge="1" parent="1" source="ZdY6UfQ90pM_1I85fz65-80" target="ZdY6UfQ90pM_1I85fz65-2">
          <mxGeometry relative="1" as="geometry" />
        </mxCell>
        <mxCell id="ZdY6UfQ90pM_1I85fz65-87" value="Favoris" style="swimlane;fontStyle=0;childLayout=stackLayout;horizontal=1;startSize=30;horizontalStack=0;resizeParent=1;resizeParentMax=0;resizeLast=0;collapsible=1;marginBottom=0;whiteSpace=wrap;html=1;labelBackgroundColor=none;fillColor=#A8DADC;strokeColor=#457B9D;fontColor=#1D3557;" vertex="1" parent="1">
          <mxGeometry x="1280" y="340" width="140" height="150" as="geometry" />
        </mxCell>
        <mxCell id="ZdY6UfQ90pM_1I85fz65-116" value="ID_favoris" style="text;strokeColor=none;fillColor=none;align=left;verticalAlign=middle;spacingLeft=4;spacingRight=4;overflow=hidden;points=[[0,0.5],[1,0.5]];portConstraint=eastwest;rotatable=0;whiteSpace=wrap;html=1;fontStyle=4;labelBackgroundColor=none;fontColor=#1D3557;" vertex="1" parent="ZdY6UfQ90pM_1I85fz65-87">
          <mxGeometry y="30" width="140" height="30" as="geometry" />
        </mxCell>
        <mxCell id="ZdY6UfQ90pM_1I85fz65-88" value="ID_user" style="text;strokeColor=none;fillColor=none;align=left;verticalAlign=middle;spacingLeft=4;spacingRight=4;overflow=hidden;points=[[0,0.5],[1,0.5]];portConstraint=eastwest;rotatable=0;whiteSpace=wrap;html=1;fontStyle=0;labelBackgroundColor=none;fontColor=#1D3557;" vertex="1" parent="ZdY6UfQ90pM_1I85fz65-87">
          <mxGeometry y="60" width="140" height="30" as="geometry" />
        </mxCell>
        <mxCell id="ZdY6UfQ90pM_1I85fz65-89" value="&lt;span&gt;ID_plat?&lt;/span&gt;" style="text;strokeColor=none;fillColor=none;align=left;verticalAlign=middle;spacingLeft=4;spacingRight=4;overflow=hidden;points=[[0,0.5],[1,0.5]];portConstraint=eastwest;rotatable=0;whiteSpace=wrap;html=1;fontStyle=0;labelBackgroundColor=none;fontColor=#1D3557;" vertex="1" parent="ZdY6UfQ90pM_1I85fz65-87">
          <mxGeometry y="90" width="140" height="30" as="geometry" />
        </mxCell>
        <mxCell id="ZdY6UfQ90pM_1I85fz65-90" value="&lt;span&gt;ID_aliment?&lt;/span&gt;" style="text;strokeColor=none;fillColor=none;align=left;verticalAlign=middle;spacingLeft=4;spacingRight=4;overflow=hidden;points=[[0,0.5],[1,0.5]];portConstraint=eastwest;rotatable=0;whiteSpace=wrap;html=1;fontStyle=0;labelBackgroundColor=none;fontColor=#1D3557;" vertex="1" parent="ZdY6UfQ90pM_1I85fz65-87">
          <mxGeometry y="120" width="140" height="30" as="geometry" />
        </mxCell>
        <mxCell id="ZdY6UfQ90pM_1I85fz65-93" style="edgeStyle=entityRelationEdgeStyle;rounded=0;orthogonalLoop=1;jettySize=auto;html=1;labelBackgroundColor=none;strokeColor=#457B9D;fontColor=default;" edge="1" parent="1" source="ZdY6UfQ90pM_1I85fz65-88" target="ZdY6UfQ90pM_1I85fz65-2">
          <mxGeometry relative="1" as="geometry" />
        </mxCell>
        <mxCell id="ZdY6UfQ90pM_1I85fz65-94" style="edgeStyle=entityRelationEdgeStyle;rounded=0;orthogonalLoop=1;jettySize=auto;html=1;labelBackgroundColor=none;strokeColor=#457B9D;fontColor=default;" edge="1" parent="1" source="ZdY6UfQ90pM_1I85fz65-89" target="ZdY6UfQ90pM_1I85fz65-62">
          <mxGeometry relative="1" as="geometry" />
        </mxCell>
        <mxCell id="ZdY6UfQ90pM_1I85fz65-95" style="edgeStyle=entityRelationEdgeStyle;rounded=0;orthogonalLoop=1;jettySize=auto;html=1;labelBackgroundColor=none;strokeColor=#457B9D;fontColor=default;" edge="1" parent="1" source="ZdY6UfQ90pM_1I85fz65-81" target="ZdY6UfQ90pM_1I85fz65-62">
          <mxGeometry relative="1" as="geometry" />
        </mxCell>
        <mxCell id="ZdY6UfQ90pM_1I85fz65-96" style="edgeStyle=entityRelationEdgeStyle;rounded=0;orthogonalLoop=1;jettySize=auto;html=1;labelBackgroundColor=none;strokeColor=#457B9D;fontColor=default;" edge="1" parent="1" source="ZdY6UfQ90pM_1I85fz65-85" target="ZdY6UfQ90pM_1I85fz65-69">
          <mxGeometry relative="1" as="geometry" />
        </mxCell>
        <mxCell id="ZdY6UfQ90pM_1I85fz65-97" style="edgeStyle=entityRelationEdgeStyle;rounded=0;orthogonalLoop=1;jettySize=auto;html=1;labelBackgroundColor=none;strokeColor=#457B9D;fontColor=default;" edge="1" parent="1" source="ZdY6UfQ90pM_1I85fz65-90" target="ZdY6UfQ90pM_1I85fz65-69">
          <mxGeometry relative="1" as="geometry" />
        </mxCell>
        <mxCell id="ZdY6UfQ90pM_1I85fz65-98" value="Categories" style="swimlane;fontStyle=0;childLayout=stackLayout;horizontal=1;startSize=30;horizontalStack=0;resizeParent=1;resizeParentMax=0;resizeLast=0;collapsible=1;marginBottom=0;whiteSpace=wrap;html=1;labelBackgroundColor=none;fillColor=#A8DADC;strokeColor=#457B9D;fontColor=#1D3557;" vertex="1" parent="1">
          <mxGeometry x="590" y="660" width="140" height="90" as="geometry" />
        </mxCell>
        <mxCell id="ZdY6UfQ90pM_1I85fz65-99" value="ID_categorie" style="text;strokeColor=none;fillColor=none;align=left;verticalAlign=middle;spacingLeft=4;spacingRight=4;overflow=hidden;points=[[0,0.5],[1,0.5]];portConstraint=eastwest;rotatable=0;whiteSpace=wrap;html=1;fontStyle=4;labelBackgroundColor=none;fontColor=#1D3557;" vertex="1" parent="ZdY6UfQ90pM_1I85fz65-98">
          <mxGeometry y="30" width="140" height="30" as="geometry" />
        </mxCell>
        <mxCell id="ZdY6UfQ90pM_1I85fz65-100" value="nom" style="text;strokeColor=none;fillColor=none;align=left;verticalAlign=middle;spacingLeft=4;spacingRight=4;overflow=hidden;points=[[0,0.5],[1,0.5]];portConstraint=eastwest;rotatable=0;whiteSpace=wrap;html=1;labelBackgroundColor=none;fontColor=#1D3557;" vertex="1" parent="ZdY6UfQ90pM_1I85fz65-98">
          <mxGeometry y="60" width="140" height="30" as="geometry" />
        </mxCell>
        <mxCell id="ZdY6UfQ90pM_1I85fz65-104" style="edgeStyle=entityRelationEdgeStyle;rounded=0;orthogonalLoop=1;jettySize=auto;html=1;labelBackgroundColor=none;strokeColor=#457B9D;fontColor=default;" edge="1" parent="1" source="ZdY6UfQ90pM_1I85fz65-66" target="ZdY6UfQ90pM_1I85fz65-99">
          <mxGeometry relative="1" as="geometry" />
        </mxCell>
        <mxCell id="ZdY6UfQ90pM_1I85fz65-105" value="Hydratation" style="swimlane;fontStyle=0;childLayout=stackLayout;horizontal=1;startSize=30;horizontalStack=0;resizeParent=1;resizeParentMax=0;resizeLast=0;collapsible=1;marginBottom=0;whiteSpace=wrap;html=1;labelBackgroundColor=none;fillColor=#A8DADC;strokeColor=#457B9D;fontColor=#1D3557;" vertex="1" parent="1">
          <mxGeometry x="1090" y="30" width="140" height="120" as="geometry" />
        </mxCell>
        <mxCell id="ZdY6UfQ90pM_1I85fz65-106" value="ID_user" style="text;strokeColor=none;fillColor=none;align=left;verticalAlign=middle;spacingLeft=4;spacingRight=4;overflow=hidden;points=[[0,0.5],[1,0.5]];portConstraint=eastwest;rotatable=0;whiteSpace=wrap;html=1;fontStyle=0;labelBackgroundColor=none;fontColor=#1D3557;" vertex="1" parent="ZdY6UfQ90pM_1I85fz65-105">
          <mxGeometry y="30" width="140" height="30" as="geometry" />
        </mxCell>
        <mxCell id="ZdY6UfQ90pM_1I85fz65-107" value="date" style="text;strokeColor=none;fillColor=none;align=left;verticalAlign=middle;spacingLeft=4;spacingRight=4;overflow=hidden;points=[[0,0.5],[1,0.5]];portConstraint=eastwest;rotatable=0;whiteSpace=wrap;html=1;fontStyle=0;labelBackgroundColor=none;fontColor=#1D3557;" vertex="1" parent="ZdY6UfQ90pM_1I85fz65-105">
          <mxGeometry y="60" width="140" height="30" as="geometry" />
        </mxCell>
        <mxCell id="ZdY6UfQ90pM_1I85fz65-108" value="volume" style="text;strokeColor=none;fillColor=none;align=left;verticalAlign=middle;spacingLeft=4;spacingRight=4;overflow=hidden;points=[[0,0.5],[1,0.5]];portConstraint=eastwest;rotatable=0;whiteSpace=wrap;html=1;fontStyle=0;labelBackgroundColor=none;fontColor=#1D3557;" vertex="1" parent="ZdY6UfQ90pM_1I85fz65-105">
          <mxGeometry y="90" width="140" height="30" as="geometry" />
        </mxCell>
        <mxCell id="ZdY6UfQ90pM_1I85fz65-111" style="edgeStyle=entityRelationEdgeStyle;rounded=0;orthogonalLoop=1;jettySize=auto;html=1;labelBackgroundColor=none;strokeColor=#457B9D;fontColor=default;" edge="1" parent="1" source="ZdY6UfQ90pM_1I85fz65-106" target="ZdY6UfQ90pM_1I85fz65-2">
          <mxGeometry relative="1" as="geometry" />
        </mxCell>
        <mxCell id="ZdY6UfQ90pM_1I85fz65-26" value="User_restrictions" style="swimlane;fontStyle=0;childLayout=stackLayout;horizontal=1;startSize=30;horizontalStack=0;resizeParent=1;resizeParentMax=0;resizeLast=0;collapsible=1;marginBottom=0;whiteSpace=wrap;html=1;labelBackgroundColor=none;fillColor=#A8DADC;strokeColor=#457B9D;fontColor=#1D3557;" vertex="1" parent="1">
          <mxGeometry x="610" y="110" width="140" height="90" as="geometry" />
        </mxCell>
        <mxCell id="ZdY6UfQ90pM_1I85fz65-27" value="ID_user" style="text;strokeColor=none;fillColor=none;align=left;verticalAlign=middle;spacingLeft=4;spacingRight=4;overflow=hidden;points=[[0,0.5],[1,0.5]];portConstraint=eastwest;rotatable=0;whiteSpace=wrap;html=1;fontStyle=4;labelBackgroundColor=none;fontColor=#1D3557;" vertex="1" parent="ZdY6UfQ90pM_1I85fz65-26">
          <mxGeometry y="30" width="140" height="30" as="geometry" />
        </mxCell>
        <mxCell id="ZdY6UfQ90pM_1I85fz65-30" value="ID_restriction" style="text;strokeColor=none;fillColor=none;align=left;verticalAlign=middle;spacingLeft=4;spacingRight=4;overflow=hidden;points=[[0,0.5],[1,0.5]];portConstraint=eastwest;rotatable=0;whiteSpace=wrap;html=1;fontStyle=4;labelBackgroundColor=none;fontColor=#1D3557;" vertex="1" parent="ZdY6UfQ90pM_1I85fz65-26">
          <mxGeometry y="60" width="140" height="30" as="geometry" />
        </mxCell>
        <mxCell id="ZdY6UfQ90pM_1I85fz65-35" style="edgeStyle=entityRelationEdgeStyle;rounded=0;orthogonalLoop=1;jettySize=auto;html=1;labelBackgroundColor=none;strokeColor=#457B9D;fontColor=default;" edge="1" parent="1" source="ZdY6UfQ90pM_1I85fz65-27" target="ZdY6UfQ90pM_1I85fz65-2">
          <mxGeometry relative="1" as="geometry" />
        </mxCell>
        <mxCell id="ZdY6UfQ90pM_1I85fz65-117" value="Moment" style="swimlane;fontStyle=0;childLayout=stackLayout;horizontal=1;startSize=30;horizontalStack=0;resizeParent=1;resizeParentMax=0;resizeLast=0;collapsible=1;marginBottom=0;whiteSpace=wrap;html=1;labelBackgroundColor=none;fillColor=#A8DADC;strokeColor=#457B9D;fontColor=#1D3557;" vertex="1" parent="1">
          <mxGeometry x="1060" y="700" width="140" height="90" as="geometry" />
        </mxCell>
        <mxCell id="ZdY6UfQ90pM_1I85fz65-118" value="ID_moment" style="text;strokeColor=none;fillColor=none;align=left;verticalAlign=middle;spacingLeft=4;spacingRight=4;overflow=hidden;points=[[0,0.5],[1,0.5]];portConstraint=eastwest;rotatable=0;whiteSpace=wrap;html=1;fontStyle=4;labelBackgroundColor=none;fontColor=#1D3557;" vertex="1" parent="ZdY6UfQ90pM_1I85fz65-117">
          <mxGeometry y="30" width="140" height="30" as="geometry" />
        </mxCell>
        <mxCell id="ZdY6UfQ90pM_1I85fz65-119" value="nom" style="text;strokeColor=none;fillColor=none;align=left;verticalAlign=middle;spacingLeft=4;spacingRight=4;overflow=hidden;points=[[0,0.5],[1,0.5]];portConstraint=eastwest;rotatable=0;whiteSpace=wrap;html=1;labelBackgroundColor=none;fontColor=#1D3557;" vertex="1" parent="ZdY6UfQ90pM_1I85fz65-117">
          <mxGeometry y="60" width="140" height="30" as="geometry" />
        </mxCell>
        <mxCell id="ZdY6UfQ90pM_1I85fz65-120" style="edgeStyle=entityRelationEdgeStyle;rounded=0;orthogonalLoop=1;jettySize=auto;html=1;strokeColor=#457B9D;fontColor=#1D3557;fillColor=#A8DADC;" edge="1" parent="1" source="ZdY6UfQ90pM_1I85fz65-83" target="ZdY6UfQ90pM_1I85fz65-118">
          <mxGeometry relative="1" as="geometry" />
        </mxCell>
      </root>
    </mxGraphModel>
  </diagram>
</mxfile>
